<svg xmlns="http://www.w3.org/2000/svg" viewBox="0 0 48 48" width="48" height="48">
  <rect x="0" y="0" width="48" height="48" rx="10" fill="#1E3A5F"/>
  <path d="M8 6 L8 42 L16 42 Q34 42 34 24 Q34 6 16 6 Z" fill="#2A4A6F"/>
  <path d="M13 10 L13 38 L17 38 Q28 38 28 24 Q28 10 17 10 Z" fill="#0d1f35"/>
  <rect x="13" y="17" width="13" height="2.5" rx="1" fill="#F59E0B"/>
  <rect x="13" y="25" width="14" height="2.5" rx="1" fill="#F59E0B"/>
  <rect x="13" y="33" width="11" height="2" rx="1" fill="#F59E0B" opacity="0.7"/>
  <rect x="30" y="30" width="12" height="12" rx="4" fill="#F59E0B"/>
  <line x1="33" y1="33" x2="39" y2="39" stroke="#1E3A5F" stroke-width="2.5" stroke-linecap="round"/>
  <line x1="39" y1="33" x2="33" y2="39" stroke="#1E3A5F" stroke-width="2.5" stroke-linecap="round"/>
</svg>
