<svg xmlns="http://www.w3.org/2000/svg" viewBox="0 0 164 44" width="164" height="44">
  <rect x="0" y="0" width="164" height="44" rx="10" fill="#1E3A5F"/>
  <path d="M10 7 L10 37 L18 37 Q33 37 33 22 Q33 7 18 7 Z" fill="#2A4A6F"/>
  <path d="M15 10 L15 34 L19 34 Q28 34 28 22 Q28 10 19 10 Z" fill="#0d1f35"/>
  <rect x="15" y="17" width="11" height="2" rx="1" fill="#F59E0B"/>
  <rect x="15" y="23" width="12" height="2" rx="1" fill="#F59E0B"/>
  <rect x="15" y="29" width="9" height="1.5" rx="0.75" fill="#F59E0B" opacity="0.7"/>
  <rect x="28" y="27" width="8" height="8" rx="3" fill="#F59E0B"/>
  <line x1="30.5" y1="29.5" x2="33.5" y2="32.5" stroke="#1E3A5F" stroke-width="1.8" stroke-linecap="round"/>
  <line x1="33.5" y1="29.5" x2="30.5" y2="32.5" stroke="#1E3A5F" stroke-width="1.8" stroke-linecap="round"/>
  <text x="44" y="28" font-family="Arial Black, sans-serif" font-size="16" font-weight="900" fill="white">DOKKAN<tspan fill="#F59E0B">X</tspan></text>
</svg>
