<svg xmlns="http://www.w3.org/2000/svg" viewBox="0 0 380 100" width="380" height="100">
  <path d="M0 0 L0 90 L25 90 Q69 90 69 45 Q69 0 25 0 Z" fill="#1E3A5F"/>
  <path d="M14 10 L14 80 L27 80 Q53 80 53 45 Q53 10 27 10 Z" fill="#0d1f35"/>
  <rect x="14" y="29" width="35" height="3" rx="1" fill="#F59E0B"/>
  <rect x="16" y="20" width="5" height="9" rx="1" fill="#60A5FA"/>
  <rect x="23" y="22" width="4" height="7" rx="1" fill="#34D399"/>
  <rect x="29" y="20" width="5" height="9" rx="1" fill="#F87171"/>
  <rect x="36" y="22" width="4" height="7" rx="1" fill="#A78BFA"/>
  <rect x="14" y="58" width="37" height="3" rx="1" fill="#F59E0B"/>
  <rect x="16" y="48" width="5" height="10" rx="1" fill="#34D399"/>
  <rect x="23" y="50" width="4" height="8" rx="1" fill="#F59E0B"/>
  <rect x="29" y="48" width="6" height="10" rx="1" fill="#60A5FA"/>
  <rect x="37" y="50" width="5" height="8" rx="1" fill="#F87171"/>
  <rect x="14" y="78" width="32" height="2" rx="1" fill="#F59E0B" opacity="0.7"/>
  <rect x="16" y="69" width="5" height="9" rx="1" fill="#F59E0B"/>
  <rect x="23" y="71" width="4" height="7" rx="1" fill="#34D399"/>
  <rect x="29" y="69" width="5" height="9" rx="1" fill="#60A5FA"/>
  <rect x="4" y="0" width="4" height="90" fill="#2563EB" opacity="0.3"/>
  <rect x="55" y="68" width="22" height="22" rx="6" fill="#F59E0B"/>
  <line x1="61" y1="74" x2="71" y2="84" stroke="#1E3A5F" stroke-width="3.5" stroke-linecap="round"/>
  <line x1="71" y1="74" x2="61" y2="84" stroke="#1E3A5F" stroke-width="3.5" stroke-linecap="round"/>
  <text x="88" y="55" font-family="Arial Black, sans-serif" font-size="38" font-weight="900" fill="#1E3A5F">DOKKAN<tspan fill="#F59E0B">X</tspan></text>
  <text x="90" y="75" font-family="sans-serif" font-size="13" fill="#6B7280" letter-spacing="3">دكان إكس</text>
</svg>
