<svg xmlns="http://www.w3.org/2000/svg" viewBox="0 0 180 180" width="180" height="180">
  <path d="M0 0 L0 180 L50 180 Q138 180 138 90 Q138 0 50 0 Z" fill="#1E3A5F"/>
  <path d="M28 20 L28 160 L54 160 Q106 160 106 90 Q106 20 54 20 Z" fill="#0d1f35"/>
  <rect x="28" y="58" width="70" height="5" rx="2" fill="#F59E0B"/>
  <rect x="32" y="40" width="9" height="18" rx="2" fill="#60A5FA"/>
  <rect x="44" y="44" width="7" height="14" rx="2" fill="#34D399"/>
  <rect x="54" y="41" width="10" height="17" rx="2" fill="#F87171"/>
  <rect x="67" y="45" width="8" height="13" rx="2" fill="#A78BFA"/>
  <rect x="78" y="42" width="9" height="16" rx="2" fill="#60A5FA" opacity="0.8"/>
  <rect x="28" y="116" width="74" height="5" rx="2" fill="#F59E0B"/>
  <rect x="32" y="97" width="10" height="19" rx="2" fill="#34D399"/>
  <rect x="45" y="101" width="8" height="15" rx="2" fill="#F59E0B"/>
  <rect x="56" y="98" width="11" height="18" rx="2" fill="#60A5FA"/>
  <rect x="70" y="102" width="9" height="14" rx="2" fill="#F87171"/>
  <rect x="82" y="99" width="9" height="17" rx="2" fill="#A78BFA" opacity="0.85"/>
  <rect x="28" y="155" width="64" height="4" rx="2" fill="#F59E0B" opacity="0.8"/>
  <rect x="32" y="137" width="9" height="18" rx="2" fill="#F59E0B"/>
  <rect x="44" y="140" width="8" height="15" rx="2" fill="#34D399"/>
  <rect x="55" y="138" width="10" height="17" rx="2" fill="#60A5FA"/>
  <rect x="68" y="141" width="8" height="14" rx="2" fill="#F87171" opacity="0.9"/>
  <rect x="0" y="0" width="8" height="180" fill="#2563EB" opacity="0.35"/>
  <rect x="110" y="135" width="42" height="42" rx="10" fill="#F59E0B"/>
  <line x1="120" y1="145" x2="142" y2="167" stroke="#1E3A5F" stroke-width="6" stroke-linecap="round"/>
  <line x1="142" y1="145" x2="120" y2="167" stroke="#1E3A5F" stroke-width="6" stroke-linecap="round"/>
</svg>
